# xmcd
#
# Track frame offsets: 
#        150
#        18433
#        39430
#        57108
#        79972
#        96793
#        117224
#        137651
#        159772
#        182004
#        202776
#        225254
#
# Disc length: 3212 seconds
#
# Revision: 0
# Processed by: cddbd v1.5.2PL0 Copyright (c) Steve Scherf et al.
# Submitted via: ExactAudioCopyFreeDBPlugin 1.0
#
DISCID=850c8a0c
DTITLE=群星 - Dts 国乐2·世外桃源 
DYEAR=2012
DGENRE=Acid
TTITLE0=春天里（洞箫，二胡）
TTITLE1=天上西藏（洞箫、古筝、大提琴）
TTITLE2=千百度（二胡，古筝，洞箫）
TTITLE3=新贵妃醉酒（古筝，二胡，笛子）
TTITLE4=爱琴海（洞箫、古筝、大提琴）
TTITLE5=传奇（古筝、笛子）
TTITLE6=西海情歌（二胡、笛子）
TTITLE7=一水隔天涯（古筝，二胡，笛子）
TTITLE8=雅鲁藏布情歌（二胡、笛子、古筝）
TTITLE9=我记得我爱过（古筝、洞箫，钢琴）
TTITLE10=草原蒙古人家（笛子、大提琴、琵琶）
TTITLE11=从头再来（二胡、洞箫、笛子、琵琶）
EXTD=
EXTT0=
EXTT1=
EXTT2=
EXTT3=
EXTT4=
EXTT5=
EXTT6=
EXTT7=
EXTT8=
EXTT9=
EXTT10=
EXTT11=
PLAYORDER=
